<?xml version="1.0"?><svg version="1.2" baseProfile="tiny-ps" viewBox="0 0 793 793" xmlns="http://www.w3.org/2000/svg" xmlns:xlink="http://www.w3.org/1999/xlink"><title>Yet-It-Moves</title><g><g transform="matrix(.1 0 0 -.1 0 793)"><path d="M3090 7431c-14-4-43-17-66-29l-40-21-36-39-36-39-21-57-21-57v-598l21-57 22-57 44-44 44-45 47-21 47-22h200l52 24 53 23 38 42 39 43 22 58 22 58-3 316-3 316-27 51c-35 66-81 112-138 138l-45 20-95 3-95 2-25-8zM241 7160c-65-24-113-59-152-113l-30-41-16-55-16-55 6-62 6-63 26-51c14-28 222-400 463-828l437-777 5-965 5-965 30-53c35-64 71-97 144-130l55-25 71-5 72-4 55 16 56 16 48 33 49 34 35 68 35 68 5 956 5 956 452 810 452 811 11 47 12 47-4 62-4 63-19 40-19 40-51 51-50 51-65 21-64 22h-115l-58-21-57-22-38-36-37-36-322-585c-177-322-333-606-348-632l-26-47-333 627-333 627-48 46-48 45-53 17-52 17h-62l-61-1-54-19zm4034-5l-60-24-46-50-47-50-18-48-19-48-3-1810-3-1810 11-70 11-70 28-50 28-50 41-32c23-17 66-41 97-52l56-21h115l51 15c27 8 69 28 93 44l43 28 28 43c16 24 34 59 41 79l12 36 6 923 5 923 309-873c170-480 327-918 348-974l38-101 35-41 36-41 57-28 57-28h180l45 24c69 37 98 62 130 111l29 45 345 965 345 965 3-941 3-941 35-68 35-68 49-34 48-33 56-16 56-16 65 5c89 7 133 22 183 60 53 41 84 86 103 152l15 51-2 1864-3 1865-27 50c-32 60-77 105-138 136l-45 22-80 5-80 4-59-22-60-23-48-45-49-45-28-61c-15-34-250-676-522-1428l-494-1367-11 32c-7 17-231 642-498 1387l-487 1355-32 54-32 54-45 33c-25 19-69 43-98 54l-53 20h-124l-60-25zM3105 6056c-60-15-120-51-162-99l-31-35-21-57-21-56 2-1303 3-1303 35-68 35-68 49-34 48-33 56-16 56-16 65 5c89 7 133 22 183 60 54 41 84 86 103 152l15 51-2 1305-3 1304-27 51c-49 93-113 141-216 163-65 14-102 13-167-3z"/></g></g></svg>