<?xml version="1.0" encoding="utf-8"?>
<!-- Generator: Adobe Illustrator 26.4.1, SVG Export Plug-In . SVG Version: 6.00 Build 0)  -->
<svg version="1.1" id="Calque_1" xmlns="http://www.w3.org/2000/svg" xmlns:xlink="http://www.w3.org/1999/xlink" x="0px" y="0px"
	 viewBox="0 0 866.83 677.53" style="enable-background:new 0 0 866.83 677.53;" xml:space="preserve">
<style type="text/css">
	.st0{fill:url(#SVGID_1_);}
	.st1{fill:url(#SVGID_00000009561764544829761700000017868371885920800164_);}
	.st2{fill:url(#SVGID_00000173135817344747283630000002877127430376863885_);}
	.st3{fill:url(#SVGID_00000117654167704300833670000009732792242854058625_);}
	.st4{fill:url(#SVGID_00000015315718560177600970000000539752328809199504_);}
	.st5{fill:url(#SVGID_00000183952366312531725990000004182495387652323465_);}
	.st6{fill:url(#SVGID_00000172436284400216505660000016574389510326479509_);}
	.st7{fill:url(#SVGID_00000086690177786748675060000017248180516881185684_);}
	.st8{fill:url(#SVGID_00000057844685334868230480000018367727929153398447_);}
	.st9{fill:url(#SVGID_00000121255936563502980160000011911904239551373742_);}
	.st10{fill:url(#SVGID_00000116212971288746031770000002384004025885212315_);}
	.st11{fill:url(#SVGID_00000019644245576405333760000018354691398118015129_);}
	.st12{fill:url(#SVGID_00000005269160798516899340000007228021884429520284_);}
	.st13{fill:url(#SVGID_00000168108917731907167510000016614239231602259623_);}
	.st14{fill:url(#SVGID_00000102541138327405819380000007412677008279274149_);}
	.st15{fill:url(#SVGID_00000110430846585439674470000004164895407904088716_);}
	.st16{fill:url(#SVGID_00000177455934594249567090000003932417286530268094_);}
	.st17{fill:url(#SVGID_00000159454361186570860160000004982002799808474552_);}
	.st18{fill:url(#SVGID_00000049916716017773568200000001591437978203913613_);}
	.st19{fill:url(#SVGID_00000079458854233304039070000007973054864531295153_);}
	.st20{fill:url(#SVGID_00000081614986655703320080000013457197930181775012_);}
	.st21{fill:url(#SVGID_00000109734978266507610790000007107154845114717861_);}
	.st22{fill:url(#SVGID_00000111897676166984617600000008407079695744115383_);}
	.st23{fill:url(#SVGID_00000107550613492439324340000009770158033109950336_);}
	.st24{fill:url(#SVGID_00000175293681488806595240000007704690675895688881_);}
	.st25{fill:url(#SVGID_00000153663097483402688260000012720733823057492651_);}
	.st26{fill:url(#SVGID_00000145046297927994066670000011859772495231705992_);}
	.st27{fill:url(#SVGID_00000006680354170860616260000008288767997286424712_);}
	.st28{fill:url(#SVGID_00000019638073180853355810000015571936622952398519_);}
	.st29{fill:url(#SVGID_00000158724226952430937060000007979758337030960010_);}
	.st30{fill:url(#SVGID_00000103258213611031929280000004597873733084013743_);}
	.st31{fill:url(#SVGID_00000080175655814270955110000009336226865768175255_);}
	.st32{fill:url(#SVGID_00000119077143234064423980000007133866370346398375_);}
	.st33{fill:url(#SVGID_00000060745993905311651440000000826462357141448607_);}
	.st34{fill:url(#SVGID_00000182528642582359573150000007822744629991912868_);}
	.st35{fill:none;stroke:#FFFFFF;stroke-width:24.2694;stroke-miterlimit:10;}
	.st36{stroke:#000000;stroke-width:3;stroke-linecap:round;stroke-linejoin:round;stroke-miterlimit:10;}
	.st37{stroke:#000000;stroke-width:4;stroke-linecap:round;stroke-linejoin:round;stroke-miterlimit:10;}
</style>
<g>
	<g>
		<g>
			<linearGradient id="SVGID_1_" gradientUnits="userSpaceOnUse" x1="307.4811" y1="-59.3902" x2="779.7261" y2="902.1176">
				<stop  offset="0" style="stop-color:#36A9E1;stop-opacity:0.3"/>
				<stop  offset="1" style="stop-color:#D288B9;stop-opacity:0.3"/>
			</linearGradient>
			<path class="st0" d="M339.24,132.27c-15.28,0-31.82-2.28-50.16-6.79l-3.53-0.87l2.46-2.67c4.28-4.65,8.77-9.26,13.35-13.68
				l0.73-0.7l1,0.11c29.88,3.35,55.82-1.22,79.32-13.96c28.91-15.68,41.11-38.7,49.99-61.24l0.39-0.98l1.01-0.3
				c7.78-2.28,15.73-4.28,23.63-5.94l3.56-0.75l-1.06,3.48c-10.08,33.17-20.51,67.48-57.88,88.29
				C382.82,126.98,362.5,132.27,339.24,132.27z M293.68,122.16c43.36,10.09,76.26,7.08,106.28-9.64l0,0
				c34.61-19.28,44.87-49.75,54.79-82.29c-6.27,1.4-12.56,3.01-18.74,4.8c-9.14,22.98-21.85,46.36-51.55,62.46
				c-24.03,13.03-50.48,17.79-80.83,14.56C300.24,115.34,296.91,118.73,293.68,122.16z"/>
			
				<linearGradient id="SVGID_00000129173752312657437430000010826937377045102987_" gradientUnits="userSpaceOnUse" x1="318.6018" y1="-64.8521" x2="790.8467" y2="896.6557">
				<stop  offset="0" style="stop-color:#36A9E1;stop-opacity:0.3"/>
				<stop  offset="1" style="stop-color:#D288B9;stop-opacity:0.3"/>
			</linearGradient>
			<path style="fill:url(#SVGID_00000129173752312657437430000010826937377045102987_);" d="M425.09,228.27
				c-31.89,0-64.84-9.93-97.14-19.66c-30.14-9.08-58.6-17.66-84.77-17.77l-3.57-0.02l1.69-3.15c3.18-5.94,6.63-11.91,10.25-17.74
				l0.78-1.26l1.45,0.28c18.18,3.55,36.7,9.29,56.31,15.38c54.25,16.84,110.33,34.25,160.02,3.41
				c33.93-21.07,39.79-54.17,46.57-92.51c4.37-24.71,8.89-50.25,21.43-75.34l0.63-1.25l1.4,0.07c7.06,0.35,14.39,0.97,21.78,1.84
				l3.41,0.4l-1.85,2.89c-18.46,28.81-23.01,59.74-27.41,89.66c-5.62,38.18-10.92,74.24-46.11,96.67
				C469.24,223.4,447.42,228.27,425.09,228.27z M246.76,186.61c25.77,0.82,53.32,9.12,82.42,17.89
				c53.99,16.27,109.82,33.09,158.46,2.07l1.16,1.81l-1.16-1.81c33.53-21.38,38.46-54.88,44.16-93.68
				c4.32-29.37,8.79-59.7,26.23-88.44c-5.66-0.61-11.26-1.07-16.71-1.37c-11.8,24.13-16.18,48.92-20.42,72.91
				c-6.67,37.71-12.97,73.33-48.54,95.41c-51.35,31.88-108.39,14.17-163.56-2.95c-18.97-5.89-36.91-11.46-54.4-14.98
				C251.75,177.81,249.19,182.21,246.76,186.61z"/>
			
				<linearGradient id="SVGID_00000157289718055480616410000017112342614697145278_" gradientUnits="userSpaceOnUse" x1="302.6546" y1="-57.0196" x2="774.8996" y2="904.4882">
				<stop  offset="0" style="stop-color:#36A9E1;stop-opacity:0.3"/>
				<stop  offset="1" style="stop-color:#D288B9;stop-opacity:0.3"/>
			</linearGradient>
			<path style="fill:url(#SVGID_00000157289718055480616410000017112342614697145278_);" d="M317.6,93.49l6.22-4.98
				c23.86-19.1,50.24-34.66,78.41-46.24l6.8-2.79l-4.22,6.01c-9.9,14.11-22.31,24.97-37.93,33.21c-13.01,6.86-26.93,11.44-41.4,13.6
				L317.6,93.49z M396.44,49.4c-22.35,9.86-43.48,22.29-63.02,37.07c10.95-2.41,21.31-6.22,31.45-11.58
				C377.43,68.28,387.82,59.9,396.44,49.4z"/>
			
				<linearGradient id="SVGID_00000131364110691325842570000018428533412028170937_" gradientUnits="userSpaceOnUse" x1="310.3798" y1="-60.8139" x2="782.6248" y2="900.6939">
				<stop  offset="0" style="stop-color:#36A9E1;stop-opacity:0.3"/>
				<stop  offset="1" style="stop-color:#D288B9;stop-opacity:0.3"/>
			</linearGradient>
			<path style="fill:url(#SVGID_00000131364110691325842570000018428533412028170937_);" d="M356.08,151.37
				c-25.92,0-51.99-6.5-77.22-14.4l-3.07-0.96l2.06-2.47c3.28-3.93,6.7-7.84,10.17-11.6l0.86-0.94l1.23,0.3
				c45.13,11.1,79.01,8.39,109.84-8.79c35.85-19.97,45.57-51.94,55.86-85.79l0.37-1.21l1.24-0.26c6.9-1.46,14.01-2.71,21.13-3.72
				l3.3-0.47l-0.93,3.2c-1.84,6.31-3.54,12.59-5.18,18.65c-10.31,38.11-19.21,71.02-56.11,92.14l0,0
				C398.94,146.9,377.56,151.37,356.08,151.37z M283.23,133.82c44.29,13.62,91.05,22.24,134.26-2.5
				c35.35-20.24,44.04-52.35,54.1-89.53c1.37-5.06,2.78-10.26,4.28-15.52c-5.49,0.84-10.96,1.82-16.32,2.92
				c-9.97,32.79-20.6,66.51-57.51,87.08c-31.57,17.59-66.07,20.53-111.72,9.51C287.92,128.41,285.55,131.1,283.23,133.82z"/>
			
				<linearGradient id="SVGID_00000086693578962536596210000007374699748856711087_" gradientUnits="userSpaceOnUse" x1="317.9471" y1="-64.5306" x2="790.1921" y2="896.9772">
				<stop  offset="0" style="stop-color:#36A9E1;stop-opacity:0.3"/>
				<stop  offset="1" style="stop-color:#D288B9;stop-opacity:0.3"/>
			</linearGradient>
			<path style="fill:url(#SVGID_00000086693578962536596210000007374699748856711087_);" d="M407.84,209.07
				c-32.61,0-66.15-10.41-99.03-20.62c-19.49-6.05-37.91-11.77-55.86-15.27l-3.06-0.6l1.64-2.65c2.86-4.6,5.87-9.19,8.96-13.64
				l0.88-1.27l1.49,0.43c9.26,2.71,18.85,5.77,28.12,8.73c54.49,17.41,110.84,35.4,161.57,4.75c34.37-20.77,41.16-53.52,49.02-91.43
				c3.9-18.79,7.92-38.21,15.67-57.78l0.53-1.34l2.7-0.04c6.48-0.11,13.08,0.04,19.65,0.37l3.29,0.16l-1.47,2.94
				C529.69,46.36,525.22,71.59,520.91,96c-6.67,37.71-12.97,73.33-48.54,95.41C451.63,204.29,429.95,209.07,407.84,209.07z
				 M256.84,169.59c17.2,3.57,34.74,9.02,53.25,14.76c54.24,16.84,110.33,34.25,160.02,3.41l1.13,1.83l-1.13-1.83
				c33.93-21.07,39.79-54.17,46.57-92.51c4.2-23.73,8.53-48.24,19.99-72.38c-5.34-0.21-10.68-0.31-15.94-0.22
				c-7.27,18.78-11.16,37.56-14.93,55.74c-7.73,37.28-15.03,72.5-51.01,94.24c-52.4,31.67-109.69,13.36-165.1-4.33
				c-8.75-2.79-17.78-5.68-26.53-8.26C261,163.17,258.89,166.37,256.84,169.59z"/>
			
				<linearGradient id="SVGID_00000111169159832968017070000000000713503501310373_" gradientUnits="userSpaceOnUse" x1="544.3004" y1="-175.704" x2="1016.5453" y2="785.8037">
				<stop  offset="0" style="stop-color:#36A9E1;stop-opacity:0.3"/>
				<stop  offset="1" style="stop-color:#D288B9;stop-opacity:0.3"/>
			</linearGradient>
			<path style="fill:url(#SVGID_00000111169159832968017070000000000713503501310373_);" d="M801.81,498.82l1.17-11.01
				c2.69-25.33-5.12-55.26-12.67-84.21c-12.4-47.53-24.1-92.43,7.71-117.73c9.94-7.9,22.01-13,36.91-15.59l2.04-0.35l0.43,2.02
				c1.38,6.51,2.57,13.11,3.53,19.62l0.28,1.91l-1.87,0.48c-10.22,2.64-18.74,6.72-26.04,12.48
				c-28.97,22.85-16.74,66.46-3.79,112.64c3.81,13.58,7.74,27.62,10.61,41.22l0.14,0.65l-0.26,0.62
				c-3.86,9.3-8.23,18.54-12.98,27.47L801.81,498.82z M833.61,274.89c-13.23,2.56-24.02,7.26-32.92,14.34
				c-29.62,23.55-18.25,67.14-6.22,113.28c6.67,25.57,13.53,51.9,13.34,75.53c2.83-5.77,5.5-11.62,7.95-17.5
				c-2.83-13.26-6.68-27-10.41-40.29c-13.34-47.59-25.95-92.55,5.27-117.17c7.22-5.7,15.88-9.99,25.75-12.77
				C835.59,285.19,834.67,280.02,833.61,274.89z"/>
			
				<linearGradient id="SVGID_00000062882553629884107860000006740825919268470431_" gradientUnits="userSpaceOnUse" x1="313.2856" y1="-62.2411" x2="785.5306" y2="899.2667">
				<stop  offset="0" style="stop-color:#36A9E1;stop-opacity:0.3"/>
				<stop  offset="1" style="stop-color:#D288B9;stop-opacity:0.3"/>
			</linearGradient>
			<path style="fill:url(#SVGID_00000062882553629884107860000006740825919268470431_);" d="M373.34,170.68
				c-34.06,0-68.77-11.4-102.77-22.56l-3.38-1.11l1.83-2.4c2.9-3.8,5.87-7.53,8.83-11.07l0.92-1.1l1.37,0.43
				c45.21,14.16,93.13,23.77,137.35-1.54c35.35-20.24,44.04-52.35,54.1-89.53c1.65-6.09,3.35-12.39,5.21-18.74l0.39-1.33l1.37-0.19
				c6.92-0.98,13.76-1.74,20.32-2.24l3.2-0.25l-1,3.05c-4.27,13.1-7.36,26.07-10.35,38.6c-8.8,36.88-17.11,71.72-53.53,93.14
				C416.42,166.07,395.01,170.68,373.34,170.68z M274.28,144.82c54,17.72,109.71,35.34,160.75,5.32l1.09,1.85l-1.09-1.85
				c34.84-20.49,42.57-52.9,51.53-90.43c2.78-11.65,5.64-23.66,9.47-35.87c-5.05,0.45-10.24,1.04-15.49,1.76
				c-1.69,5.86-3.27,11.68-4.8,17.32c-10.31,38.11-19.21,71.02-56.11,92.14c-45.19,25.87-93.66,16.55-139.39,2.34
				C278.24,139.8,276.25,142.29,274.28,144.82z"/>
			
				<linearGradient id="SVGID_00000039820109579897740000000010668580957576737977_" gradientUnits="userSpaceOnUse" x1="315.9264" y1="-63.5381" x2="788.1714" y2="897.9697">
				<stop  offset="0" style="stop-color:#36A9E1;stop-opacity:0.3"/>
				<stop  offset="1" style="stop-color:#D288B9;stop-opacity:0.3"/>
			</linearGradient>
			<path style="fill:url(#SVGID_00000039820109579897740000000010668580957576737977_);" d="M390.59,189.88
				c-33.33,0-67.46-10.9-100.91-21.59c-9.25-2.95-18.81-6.01-28.02-8.7l-2.86-0.84l1.7-2.45c2.74-3.95,5.61-7.89,8.51-11.69
				l0.93-1.21l1.97,0.65c54.74,17.97,111.34,36.55,163.12,6.1c34.84-20.49,42.57-52.9,51.53-90.43
				c3.01-12.62,6.12-25.67,10.45-38.94l0.44-1.37l1.43-0.11c6.5-0.5,13.35-0.81,20.34-0.91l3.21-0.05l-1.18,2.98
				c-7.61,19.22-11.6,38.46-15.45,57.07c-7.73,37.28-15.03,72.5-51.01,94.24C434.02,185.18,412.48,189.88,390.59,189.88z
				 M265.75,156.31c8.36,2.49,16.93,5.23,25.25,7.88c54.49,17.41,110.84,35.4,161.57,4.75l1.11,1.84l-1.11-1.84
				c34.37-20.77,41.16-53.52,49.02-91.43c3.7-17.83,7.51-36.23,14.51-54.78c-5.29,0.12-10.47,0.37-15.45,0.73
				c-4.04,12.64-7.02,25.14-9.91,37.24c-8.8,36.88-17.11,71.72-53.53,93.14c-53.15,31.27-110.34,12.76-165.7-5.41
				C269.56,151.02,267.63,153.66,265.75,156.31z"/>
			
				<linearGradient id="SVGID_00000013164098961105951560000009316693832489846409_" gradientUnits="userSpaceOnUse" x1="304.7973" y1="-58.072" x2="777.0423" y2="903.4358">
				<stop  offset="0" style="stop-color:#36A9E1;stop-opacity:0.3"/>
				<stop  offset="1" style="stop-color:#D288B9;stop-opacity:0.3"/>
			</linearGradient>
			<path style="fill:url(#SVGID_00000013164098961105951560000009316693832489846409_);" d="M321.5,113.02
				c-6.13,0-12.42-0.36-18.89-1.09l-4.54-0.51l3.29-3.17c7.13-6.88,14.68-13.53,22.46-19.75l0.45-0.36l0.57-0.09
				c14.18-2.12,27.27-6.43,40.03-13.16c15-7.91,26.91-18.34,36.41-31.88l0.36-0.51l0.58-0.24c10.29-4.23,20.91-7.95,31.56-11.07
				l4.21-1.23l-1.61,4.08c-9.17,23.3-21.82,47.11-51.94,63.44l0,0C365.27,107.89,344.54,113.02,321.5,113.02z M307.74,108.13
				c27.93,2.39,52.41-2.34,74.68-14.42v0c27.15-14.72,39.56-35.91,48.32-57.11c-8.88,2.74-17.7,5.89-26.29,9.4
				c-9.84,13.86-22.13,24.56-37.56,32.7c-12.83,6.77-26.56,11.32-40.82,13.52C319.76,97.27,313.62,102.61,307.74,108.13z"/>
			
				<linearGradient id="SVGID_00000008143623048598319820000014752826960999232652_" gradientUnits="userSpaceOnUse" x1="307.6566" y1="-59.4764" x2="779.9016" y2="902.0314">
				<stop  offset="0" style="stop-color:#36A9E1;stop-opacity:0.3"/>
				<stop  offset="1" style="stop-color:#D288B9;stop-opacity:0.3"/>
			</linearGradient>
			<path style="fill:url(#SVGID_00000008143623048598319820000014752826960999232652_);" d="M531.45,659.12l-0.04-2.17
				c-0.57-28.45,5.46-50.76,18.45-68.21c25.28-33.98,72.75-28.5,123-22.7c22.55,2.6,45.86,5.29,67.15,4.18l5.93-0.31l-4.35,4.03
				c-6.99,6.48-14.36,12.71-21.89,18.53l-0.66,0.51l-0.83-0.07c-8.89-0.71-17.96-1.65-26.73-2.56
				c-48.84-5.07-94.97-9.86-118.03,22.26c-8.64,12.03-13.76,26.14-15.67,43.13l-0.19,1.73l-1.73,0.17
				c-7.29,0.72-14.77,1.2-22.24,1.42L531.45,659.12z M618.45,566.03c-27.19,0-50.45,5.52-65.15,25.27
				c-12.07,16.22-17.84,36.97-17.63,63.38c6.05-0.22,12.1-0.61,18.04-1.16c2.15-16.98,7.47-31.2,16.25-43.43
				c24.52-34.14,71.85-29.23,121.96-24.02c8.47,0.88,17.23,1.79,25.8,2.49c5.66-4.4,11.23-9.04,16.6-13.83
				c-19.97,0.42-41.29-2.03-61.96-4.42C653.63,568.14,635.28,566.03,618.45,566.03z"/>
			
				<linearGradient id="SVGID_00000183948766969865370820000008393243368056876191_" gradientUnits="userSpaceOnUse" x1="304.0766" y1="-57.718" x2="776.3215" y2="903.7897">
				<stop  offset="0" style="stop-color:#36A9E1;stop-opacity:0.3"/>
				<stop  offset="1" style="stop-color:#D288B9;stop-opacity:0.3"/>
			</linearGradient>
			<path style="fill:url(#SVGID_00000183948766969865370820000008393243368056876191_);" d="M553.21,657.89l0.3-2.64
				c2-17.75,7.38-32.52,16.45-45.16c24.52-34.14,71.85-29.23,121.96-24.02c8.75,0.91,17.79,1.85,26.63,2.55l5.54,0.44l-4.4,3.4
				c-7.51,5.81-15.24,11.26-22.97,16.22l-0.61,0.39l-0.73-0.06c-42.11-3.54-81.58-4.3-101.78,24.88
				c-3.92,5.66-7.13,11.91-9.54,18.58l-0.42,1.16l-1.21,0.22c-8.82,1.63-17.77,2.89-26.58,3.76L553.21,657.89z M640.13,586.68
				c-28.06,0-52.03,5.5-66.69,25.92c-8.18,11.4-13.22,24.66-15.35,40.48c7.43-0.8,14.93-1.88,22.35-3.22
				c2.48-6.59,5.71-12.77,9.61-18.41c21.39-30.89,61.8-30.37,104.94-26.78c5.91-3.81,11.81-7.91,17.62-12.24
				c-7.08-0.63-14.21-1.37-21.15-2.09C673.67,588.5,656.23,586.68,640.13,586.68z"/>
			
				<linearGradient id="SVGID_00000065075993789165099300000002368188873639797123_" gradientUnits="userSpaceOnUse" x1="554.2979" y1="-180.6143" x2="1026.5428" y2="780.8934">
				<stop  offset="0" style="stop-color:#36A9E1;stop-opacity:0.3"/>
				<stop  offset="1" style="stop-color:#D288B9;stop-opacity:0.3"/>
			</linearGradient>
			<path style="fill:url(#SVGID_00000065075993789165099300000002368188873639797123_);" d="M817.33,467.97l-1.43-6.78
				c-2.84-13.46-6.76-27.43-10.55-40.94c-13.34-47.59-25.95-92.55,5.27-117.17c7.68-6.05,16.97-10.52,27.63-13.27l2.31-0.6
				l0.35,2.36c1.01,6.87,1.82,13.89,2.38,20.85l0.13,1.59l-1.48,0.58c-5.96,2.34-11.36,5.39-16.06,9.07
				c-28.31,22.15-15.24,65.77-1.41,111.95c0.72,2.41,1.44,4.82,2.16,7.24l0.2,0.66l-0.23,0.65c-2.04,5.87-4.27,11.72-6.63,17.39
				L817.33,467.97z M837.01,294.6c-9.2,2.64-16.98,6.53-23.72,11.85c-28.97,22.85-16.74,66.46-3.79,112.64
				c3.18,11.33,6.44,22.98,9.1,34.43c1.3-3.33,2.55-6.71,3.73-10.09c-0.65-2.19-1.31-4.38-1.96-6.57
				c-14.27-47.63-27.75-92.62,2.87-116.57c4.63-3.62,9.88-6.67,15.65-9.08C838.41,305.66,837.78,300.09,837.01,294.6z"/>
			
				<linearGradient id="SVGID_00000142168038967361266150000005755774729199998652_" gradientUnits="userSpaceOnUse" x1="302.8444" y1="-57.1128" x2="775.0894" y2="904.395">
				<stop  offset="0" style="stop-color:#36A9E1;stop-opacity:0.3"/>
				<stop  offset="1" style="stop-color:#D288B9;stop-opacity:0.3"/>
			</linearGradient>
			<path style="fill:url(#SVGID_00000142168038967361266150000005755774729199998652_);" d="M612.81,646.97l9.95-7.69
				c9-6.96,20.33-11.46,34.65-13.76l15.34-2.47l-14.1,6.54c-11.02,5.11-22.43,9.63-33.9,13.43L612.81,646.97z"/>
			
				<linearGradient id="SVGID_00000155119940967023069840000003927925108552558210_" gradientUnits="userSpaceOnUse" x1="302.9431" y1="-57.1614" x2="775.1881" y2="904.3464">
				<stop  offset="0" style="stop-color:#36A9E1;stop-opacity:0.3"/>
				<stop  offset="1" style="stop-color:#D288B9;stop-opacity:0.3"/>
			</linearGradient>
			<path style="fill:url(#SVGID_00000155119940967023069840000003927925108552558210_);" d="M578.75,654.55l1.27-3.52
				c2.54-7.02,5.92-13.61,10.04-19.57c21.51-31.07,62.25-30.37,105.67-26.71l6.31,0.53l-5.33,3.42
				c-12.08,7.75-24.88,14.78-38.06,20.89l-0.27,0.13l-0.29,0.05c-13.59,2.19-24.29,6.41-32.7,12.92l-0.29,0.22l-0.35,0.12
				c-13.79,4.57-28.02,8.22-42.31,10.85L578.75,654.55z M661.82,607.29c-28.67,0-53.54,5.39-68.22,26.6
				c-3.21,4.64-5.95,9.68-8.15,15.02c12.7-2.51,25.33-5.82,37.61-9.87c8.89-6.78,20.03-11.2,34.06-13.49
				c10.94-5.09,21.61-10.81,31.81-17.05C679.66,607.8,670.56,607.29,661.82,607.29z"/>
			
				<linearGradient id="SVGID_00000173159864329887179120000005756034347216987540_" gradientUnits="userSpaceOnUse" x1="557.6017" y1="-182.237" x2="1029.8467" y2="779.2708">
				<stop  offset="0" style="stop-color:#36A9E1;stop-opacity:0.3"/>
				<stop  offset="1" style="stop-color:#D288B9;stop-opacity:0.3"/>
			</linearGradient>
			<path style="fill:url(#SVGID_00000173159864329887179120000005756034347216987540_);" d="M824.43,450.47l-1.9-6.38
				c-0.72-2.42-1.44-4.83-2.16-7.23c-14.27-47.63-27.75-92.61,2.87-116.57c5.02-3.93,10.79-7.19,17.13-9.68l2.69-1.06l0.23,2.88
				c0.62,7.61,0.97,15.42,1.05,23.23l0.01,1.2l-1.02,0.64c-1.68,1.06-3.32,2.19-4.85,3.38c-21.66,16.82-18.39,46.63-6.8,86.23
				l0.18,0.6l-0.17,0.6c-1.53,5.27-3.24,10.6-5.07,15.87L824.43,450.47z M839.25,315.73c-4.9,2.17-9.38,4.83-13.36,7.94
				c-28.31,22.15-15.24,65.77-1.41,111.95c0.08,0.25,0.15,0.51,0.23,0.76c0.94-2.89,1.83-5.79,2.67-8.66
				c-11.93-40.98-15-72.01,8.47-90.23c1.33-1.04,2.74-2.03,4.18-2.98C839.95,328.21,839.69,321.91,839.25,315.73z"/>
			
				<linearGradient id="SVGID_00000177456680097739604020000014453328704764336261_" gradientUnits="userSpaceOnUse" x1="319.5876" y1="-65.3363" x2="791.8326" y2="896.1715">
				<stop  offset="0" style="stop-color:#36A9E1;stop-opacity:0.3"/>
				<stop  offset="1" style="stop-color:#D288B9;stop-opacity:0.3"/>
			</linearGradient>
			<path style="fill:url(#SVGID_00000177456680097739604020000014453328704764336261_);" d="M523.94,659.21
				c-3.2,0-6.61-0.06-10.72-0.2l-1.89-0.06l-0.18-1.88c-3.74-39.87,2.17-68.37,18.59-89.69c26.04-33.81,73.64-27.77,124.04-21.38
				c40.97,5.2,83.33,10.57,114.54-6.4l9.77-5.31l-7.09,8.57c-9.01,10.9-18.91,21.36-29.42,31.09l-0.57,0.53l-0.78,0.04
				c-21.65,1.13-45.14-1.58-67.87-4.21c-48.99-5.65-95.26-10.99-119.06,21l0,0c-12.4,16.66-18.15,38.11-17.6,65.56l0.04,2.13
				l-2.13,0.06C530.03,659.16,526.86,659.21,523.94,659.21z M515.26,654.78c3.24,0.09,6.03,0.14,8.68,0.14
				c2.29,0,4.74-0.03,7.43-0.1c-0.24-27.43,5.82-49.06,18.48-66.08l1.72,1.28l-1.72-1.28c25.28-33.98,72.75-28.5,123-22.7
				c22.27,2.57,45.29,5.23,66.38,4.22c7.73-7.19,15.11-14.77,22.05-22.64c-31.15,12.39-70.18,7.44-108.04,2.64
				c-49.14-6.23-95.55-12.12-120.09,19.74C517.68,590.07,511.98,617.05,515.26,654.78z"/>
			
				<linearGradient id="SVGID_00000178200792345928525050000001310451808508466591_" gradientUnits="userSpaceOnUse" x1="558.7744" y1="-182.813" x2="1031.0193" y2="778.6948">
				<stop  offset="0" style="stop-color:#36A9E1;stop-opacity:0.3"/>
				<stop  offset="1" style="stop-color:#D288B9;stop-opacity:0.3"/>
			</linearGradient>
			<path style="fill:url(#SVGID_00000178200792345928525050000001310451808508466591_);" d="M829.63,435.39l-2.07-7.07
				c-12.08-41.28-15.29-72.53,8.29-90.83c1.65-1.28,3.4-2.5,5.2-3.63l3.25-2.04l0.05,5.07c0.01,0.62,0.02,1.25,0.02,1.87
				c0,8.84-0.39,17.94-1.15,27.04l-0.05,0.55l-0.31,0.46c-6.29,9.45-8.19,22.39-5.81,39.56l0.05,0.38l-0.08,0.37
				c-1.56,7.17-3.36,14.3-5.37,21.19L829.63,435.39z M840.09,339.69c-0.54,0.39-1.08,0.79-1.6,1.2
				c-20.3,15.76-18.7,42.93-8.89,78.87c1.14-4.34,2.21-8.74,3.17-13.16c-2.42-17.8-0.38-31.44,6.23-41.68
				C839.7,356.42,840.06,347.94,840.09,339.69z"/>
			
				<linearGradient id="SVGID_00000176030814876997531010000007544179808141776559_" gradientUnits="userSpaceOnUse" x1="558.7573" y1="-182.8046" x2="1031.0023" y2="778.7032">
				<stop  offset="0" style="stop-color:#36A9E1;stop-opacity:0.3"/>
				<stop  offset="1" style="stop-color:#D288B9;stop-opacity:0.3"/>
			</linearGradient>
			<path style="fill:url(#SVGID_00000176030814876997531010000007544179808141776559_);" d="M834.49,418.93l-1.66-11.96
				c-2.54-18.26-0.42-32.17,6.49-42.54l4.62-6.94l-0.69,8.31c-1.16,13.86-3.24,27.76-6.19,41.33L834.49,418.93z M837.39,380.1
				c-0.54,2.44-0.91,5.03-1.12,7.77C836.68,385.29,837.05,382.7,837.39,380.1z"/>
			
				<linearGradient id="SVGID_00000101782914315050732010000014197451759472680320_" gradientUnits="userSpaceOnUse" x1="355.6737" y1="-83.06" x2="827.9186" y2="878.4478">
				<stop  offset="0" style="stop-color:#36A9E1;stop-opacity:0.3"/>
				<stop  offset="1" style="stop-color:#D288B9;stop-opacity:0.3"/>
			</linearGradient>
			<path style="fill:url(#SVGID_00000101782914315050732010000014197451759472680320_);" d="M414.38,639.99l-3.22-1.21
				c-7.52-2.83-15.04-5.99-22.35-9.39l-1.16-0.54l-0.08-1.27c-0.67-10.76-1.68-21.7-2.74-33.29
				c-5.3-57.77-10.77-117.52,24.25-155.03c30.59-32.77,78.97-23.44,130.18-13.57c51.07,9.85,103.88,20.03,141.3-12.16
				c30.26-26.04,24.72-67.2,18.86-110.79c-6-44.6-12.21-90.72,22.91-120.09c15.9-13.3,37.58-20.71,66.27-22.66l1.24-0.08l0.69,1.03
				c4.07,6.09,7.9,12.26,11.4,18.33l1.73,3.02l-3.47,0.2c-27.15,1.56-47.6,8.32-62.5,20.68c-32.72,27.13-25.65,72.23-18.81,115.84
				c6.82,43.48,13.86,88.43-17.93,116.56c-38,33.62-91.56,23.86-143.36,14.42c-49.87-9.09-96.98-17.67-125.21,13.51
				c-32.96,36.4-26.68,94.66-20.61,151c0.79,7.29,1.6,14.83,2.29,22.08L414.38,639.99z M391.78,626.02
				c5.8,2.67,11.72,5.18,17.66,7.5c-0.61-6.15-1.29-12.45-1.95-18.58c-6.17-57.29-12.56-116.52,21.7-154.34l1.59,1.44l-1.59-1.44
				c29.84-32.94,78.08-24.16,129.17-14.85c50.79,9.25,103.31,18.82,139.74-13.42c30.03-26.57,23.47-68.39,16.53-112.67
				c-7.02-44.8-14.29-91.12,20.32-119.81c14.98-12.42,35.13-19.45,61.52-21.43c-2.76-4.67-5.71-9.39-8.81-14.06
				c-27.49,2.03-47.4,8.9-62.56,21.58c-33.31,27.86-27.26,72.78-21.41,116.22c5.76,42.8,11.72,87.06-20.31,114.62
				c-38.99,33.55-92.84,23.16-144.91,13.12c-50.02-9.65-97.26-18.76-126.23,12.28c-33.71,36.11-28.32,94.88-23.11,151.71
				C390.14,605.05,391.11,615.62,391.78,626.02z"/>
			
				<linearGradient id="SVGID_00000124875923949514074880000015530988183798872232_" gradientUnits="userSpaceOnUse" x1="339.952" y1="-75.3383" x2="812.197" y2="886.1695">
				<stop  offset="0" style="stop-color:#36A9E1;stop-opacity:0.3"/>
				<stop  offset="1" style="stop-color:#D288B9;stop-opacity:0.3"/>
			</linearGradient>
			<path style="fill:url(#SVGID_00000124875923949514074880000015530988183798872232_);" d="M369.15,619.42l-3.32-1.88
				c-7.93-4.51-15.8-9.45-23.4-14.68l-0.93-0.64l0-1.13c0.05-15.14-0.92-31.2-1.95-48.19c-3.38-55.99-7.22-119.44,29.31-156.35
				c32.09-32.41,80.72-22.02,132.21-11.02c51.62,11.03,105.01,22.44,144.41-9.64c30.75-25.03,27.21-64.93,23.47-107.16
				c-3.92-44.12-7.96-89.75,28.15-120.49c15.51-13.2,36.23-21.15,63.36-24.3l1.1-0.13l0.74,0.83c5.2,5.78,10.27,11.86,15.07,18.05
				l2.41,3.11l-3.92,0.34c-27.85,2.43-47.99,9.61-63.38,22.59c-33.87,28.58-28.87,73.3-24.03,116.55
				c4.72,42.14,9.59,85.71-22.68,112.72c-39.99,33.47-94.12,22.46-146.47,11.82c-50.17-10.2-97.55-19.83-127.24,11.06
				c-34.45,35.82-29.95,95.08-25.6,152.39c1.12,14.83,2.19,28.83,2.57,42.34L369.15,619.42z M345.8,599.96
				c6.14,4.2,12.45,8.19,18.82,11.92c-0.45-12.23-1.42-24.92-2.43-38.29c-4.21-55.54-8.99-118.49,26.79-155.7l1.55,1.49l-1.55-1.49
				c31.34-32.59,79.84-22.73,131.2-12.29c51.35,10.44,104.45,21.24,142.85-10.9c30.51-25.53,25.97-66.05,21.17-108.95
				c-4.97-44.37-10.1-90.26,25.53-120.31c15.14-12.77,35.4-20.38,61.85-23.2c-3.78-4.75-7.7-9.41-11.71-13.9
				c-25.72,3.14-45.34,10.72-59.97,23.18c-34.43,29.3-30.48,73.8-26.66,116.84c3.68,41.49,7.49,84.4-25.03,110.88
				c-41,33.38-95.41,21.75-148.02,10.51c-50.31-10.75-97.83-20.9-128.26,9.84c-35.18,35.54-31.57,95.28-28.08,153.06
				C344.85,569.27,345.8,585.02,345.8,599.96z"/>
			
				<linearGradient id="SVGID_00000050636561804510950070000017601216886721130670_" gradientUnits="userSpaceOnUse" x1="362.9613" y1="-86.6393" x2="835.2063" y2="874.8685">
				<stop  offset="0" style="stop-color:#36A9E1;stop-opacity:0.3"/>
				<stop  offset="1" style="stop-color:#D288B9;stop-opacity:0.3"/>
			</linearGradient>
			<path style="fill:url(#SVGID_00000050636561804510950070000017601216886721130670_);" d="M435.9,646.96l-3.14-0.93
				c-7.27-2.16-14.54-4.59-21.59-7.25l-1.26-0.47l-0.13-1.33c-0.69-7.22-1.5-14.75-2.28-22.03c-6.17-57.29-12.56-116.52,21.7-154.34
				c29.84-32.94,78.08-24.16,129.17-14.85c50.79,9.25,103.31,18.82,139.74-13.42c30.03-26.57,23.47-68.39,16.53-112.67
				c-7.02-44.8-14.29-91.12,20.32-119.81c15.63-12.96,36.89-20.05,65-21.66l1.32-0.08l0.66,1.15c3.33,5.8,6.61,11.97,9.75,18.35
				l1.43,2.91l-3.24,0.18c-25.75,1.44-45.24,7.87-59.58,19.66c-32.12,26.41-24.41,69.65-16.24,115.42
				c7.88,44.16,16.03,89.83-15.52,118.54c-37.01,33.68-90.28,24.55-141.81,15.72c-49.73-8.52-96.7-16.58-124.2,14.74
				c-32.21,36.68-25.04,94.42-18.1,150.26c0.36,2.9,0.72,5.78,1.07,8.65L435.9,646.96z M413.93,635.22
				c5.54,2.06,11.21,3.98,16.9,5.73c-0.22-1.79-0.44-3.58-0.67-5.37c-7.05-56.78-14.34-115.5,19.14-153.63l1.61,1.42l-1.61-1.42
				c29.08-33.12,77.2-24.87,128.15-16.14c50.5,8.66,102.73,17.61,138.19-14.66c29.79-27.12,21.86-71.59,14.18-114.61
				c-8.03-44.98-16.33-91.48,17.74-119.49c14.46-11.89,33.73-18.58,58.83-20.43c-2.45-4.86-4.97-9.57-7.52-14.07
				c-26.49,1.7-46.52,8.44-61.18,20.6c-32.72,27.13-25.65,72.23-18.81,115.84c6.82,43.48,13.86,88.43-17.93,116.56
				c-38,33.62-91.56,23.86-143.36,14.42c-49.87-9.09-96.98-17.67-125.21,13.51c-32.96,36.4-26.68,94.66-20.61,151
				C412.51,621.33,413.27,628.39,413.93,635.22z"/>
			
				<linearGradient id="SVGID_00000115494762976345006520000000279295332183735727_" gradientUnits="userSpaceOnUse" x1="347.9699" y1="-79.2763" x2="820.2148" y2="882.2315">
				<stop  offset="0" style="stop-color:#36A9E1;stop-opacity:0.3"/>
				<stop  offset="1" style="stop-color:#D288B9;stop-opacity:0.3"/>
			</linearGradient>
			<path style="fill:url(#SVGID_00000115494762976345006520000000279295332183735727_);" d="M392.09,630.91l-3.28-1.53
				c-7.83-3.65-15.57-7.64-22.98-11.85l-1.05-0.6l-0.03-1.21c-0.38-13.41-1.44-27.36-2.56-42.14
				c-4.21-55.54-8.99-118.49,26.79-155.7c31.34-32.59,79.84-22.73,131.2-12.29c51.35,10.44,104.45,21.24,142.85-10.9
				c30.51-25.53,25.97-66.05,21.17-108.95c-4.97-44.37-10.1-90.26,25.53-120.31c15.87-13.39,37.39-21.11,65.78-23.58l1.17-0.1
				l0.72,0.93c4.6,5.93,9.02,12.07,13.15,18.25l2.06,3.09l-3.7,0.25c-28.14,1.91-48.41,8.8-63.8,21.67
				c-33.31,27.86-27.26,72.78-21.41,116.22c5.76,42.8,11.72,87.06-20.31,114.62c-38.99,33.55-92.84,23.16-144.91,13.12
				c-50.02-9.65-97.26-18.75-126.23,12.28c-33.71,36.11-28.32,94.88-23.11,151.71c1.07,11.62,2.07,22.6,2.75,33.42L392.09,630.91z
				 M369.01,614.39c5.95,3.35,12.1,6.55,18.33,9.54c-0.66-9.59-1.56-19.37-2.5-29.65c-5.3-57.77-10.77-117.52,24.25-155.03
				l1.57,1.47l-1.57-1.47c30.59-32.77,78.97-23.44,130.18-13.57c51.07,9.85,103.88,20.03,141.3-12.16
				c30.26-26.04,24.72-67.2,18.86-110.79c-6-44.6-12.21-90.72,22.91-120.09c15.21-12.72,35.7-20.06,62.56-22.38
				c-3.25-4.74-6.67-9.45-10.19-14.03c-27.25,2.53-47.04,9.68-62.21,22.48c-33.87,28.58-28.87,73.3-24.03,116.55
				c4.72,42.14,9.59,85.71-22.68,112.72c-39.99,33.47-94.12,22.46-146.47,11.82c-50.16-10.2-97.55-19.83-127.24,11.06
				c-34.45,35.82-29.95,95.08-25.6,152.39C367.57,587.65,368.6,601.26,369.01,614.39z"/>
			
				<linearGradient id="SVGID_00000122679875243587056460000001243993307538809222_" gradientUnits="userSpaceOnUse" x1="370.1721" y1="-90.1809" x2="842.4171" y2="871.3269">
				<stop  offset="0" style="stop-color:#36A9E1;stop-opacity:0.3"/>
				<stop  offset="1" style="stop-color:#D288B9;stop-opacity:0.3"/>
			</linearGradient>
			<path style="fill:url(#SVGID_00000122679875243587056460000001243993307538809222_);" d="M456.61,652.12l-3.03-0.68
				c-6.92-1.55-13.93-3.37-20.82-5.42l-1.35-0.4l-0.17-1.4c-0.35-2.87-0.71-5.75-1.07-8.64c-7.05-56.78-14.34-115.5,19.14-153.63
				c29.08-33.12,77.2-24.87,128.15-16.14c50.5,8.66,102.73,17.61,138.19-14.66c29.79-27.11,21.86-71.59,14.18-114.61
				c-8.03-44.98-16.33-91.48,17.74-119.49c15.08-12.4,35.38-19.15,62.07-20.64l1.42-0.08l0.63,1.28c2.96,6.03,5.76,12.21,8.32,18.37
				l1.15,2.78l-3,0.19c-23.67,1.52-41.74,7.61-55.26,18.63c-31.51,25.69-22.86,69.05-13.69,114.95
				c8.96,44.87,18.22,91.26-13.08,120.57c-36.03,33.73-89.01,25.23-140.26,17.01c-49.58-7.96-96.42-15.47-123.17,15.98l-1.64-1.39
				l1.64,1.39c-28.99,34.08-24.63,84.9-16.51,142.95L456.61,652.12z M435.33,642.3c5.36,1.56,10.78,2.99,16.16,4.25
				c-6.64-47.57-13.98-105.74,17.92-143.25c28.32-33.3,76.32-25.59,127.13-17.44c50.22,8.06,102.15,16.39,136.64-15.9
				c29.56-27.68,20.54-72.88,11.81-116.59c-9.01-45.13-18.33-91.79,15.19-119.12c13.65-11.13,31.57-17.48,54.7-19.37
				c-2.02-4.73-4.17-9.45-6.43-14.09c-25.04,1.59-44.08,8-58.16,19.58c-32.12,26.41-24.41,69.65-16.24,115.42
				c7.88,44.16,16.03,89.83-15.52,118.54c-37.01,33.68-90.28,24.55-141.81,15.72c-49.73-8.52-96.7-16.58-124.2,14.74
				c-32.21,36.68-25.04,94.42-18.1,150.26C434.73,637.48,435.03,639.89,435.33,642.3z"/>
			
				<linearGradient id="SVGID_00000183928186212677328990000012199829839833386389_" gradientUnits="userSpaceOnUse" x1="377.1937" y1="-93.6295" x2="849.4387" y2="867.8782">
				<stop  offset="0" style="stop-color:#36A9E1;stop-opacity:0.3"/>
				<stop  offset="1" style="stop-color:#D288B9;stop-opacity:0.3"/>
			</linearGradient>
			<path style="fill:url(#SVGID_00000183928186212677328990000012199829839833386389_);" d="M476.62,655.74l-2.88-0.45
				c-6.69-1.05-13.48-2.35-20.16-3.85l-1.45-0.33l-0.21-1.47c-6.73-48.12-15.11-108.02,17.49-146.33
				c28.32-33.3,76.32-25.59,127.13-17.44c50.22,8.06,102.15,16.39,136.64-15.9c29.56-27.68,20.54-72.88,11.81-116.59
				c-9.01-45.13-18.33-91.79,15.19-119.12c14.24-11.61,33.11-18.02,57.7-19.59l1.53-0.1l0.59,1.42c2.52,6.07,4.87,12.27,6.99,18.43
				l0.9,2.61l-2.75,0.23c-20.98,1.76-37.22,7.5-49.65,17.55c-30.89,24.97-21.31,68.43-11.17,114.43
				c10.05,45.58,20.44,92.71-10.62,122.65c-35.06,33.78-87.75,25.9-138.71,18.29c-49.44-7.39-96.13-14.37-122.15,17.22
				c-27.28,33.12-22.89,82.13-16.63,125.46L476.62,655.74z M455.97,647.57c5.17,1.13,10.38,2.14,15.56,3
				c-6.15-43.52-9.79-92.18,17.99-125.91l0,0c27.57-33.47,75.43-26.32,126.1-18.74c49.93,7.46,101.56,15.18,135.09-17.13
				c29.33-28.26,19.2-74.2,9.41-118.63c-9.98-45.26-20.3-92.05,12.66-118.7c12.56-10.16,28.69-16.13,49.24-18.23
				c-1.68-4.74-3.49-9.49-5.41-14.17c-22.92,1.68-40.5,7.75-53.73,18.53c-31.51,25.69-22.86,69.05-13.69,114.95
				c8.96,44.87,18.22,91.26-13.08,120.57c-36.03,33.73-89.01,25.23-140.26,17.01c-49.58-7.96-96.42-15.47-123.17,15.98
				C443.94,539.88,447.99,590.13,455.97,647.57z"/>
			
				<linearGradient id="SVGID_00000126282008061762877180000005857444313903780265_" gradientUnits="userSpaceOnUse" x1="316.2913" y1="-63.7173" x2="788.5363" y2="897.7905">
				<stop  offset="0" style="stop-color:#36A9E1;stop-opacity:0.3"/>
				<stop  offset="1" style="stop-color:#D288B9;stop-opacity:0.3"/>
			</linearGradient>
			<path style="fill:url(#SVGID_00000126282008061762877180000005857444313903780265_);" d="M442.32,247.47
				c-31.19,0-63.52-9.45-95.24-18.71c-42.5-12.41-82.65-24.14-115.78-11.59l-4.69,1.78l1.95-4.62c3.78-8.95,8.06-17.91,12.74-26.65
				l0.61-1.14l1.29,0.01c26.79,0.11,55.55,8.78,85.99,17.95c53.99,16.27,109.82,33.09,158.46,2.07
				c33.53-21.38,38.46-54.88,44.16-93.68c4.47-30.36,9.09-61.76,28.05-91.35l0.73-1.13l1.34,0.16c7.6,0.9,15.27,2.09,22.81,3.53
				l3.55,0.68l-2.3,2.79c-26.27,31.94-30.56,68.26-34.72,103.39c-4.58,38.67-8.9,75.19-43.72,98.01l-1.18-1.8l1.18,1.8
				C486.86,242.52,464.89,247.47,442.32,247.47z M263.24,207.49c26.33,0,55.11,8.41,85.05,17.15c53.74,15.69,109.3,31.92,156.9,0.74
				c33.15-21.72,37.35-57.27,41.81-94.92c4.11-34.73,8.35-70.6,33.41-102.8c-5.85-1.05-11.77-1.95-17.65-2.67
				c-17.86,28.49-22.35,59-26.69,88.52c-5.62,38.18-10.92,74.24-46.11,96.67c-50.3,32.08-107.09,14.97-162.01-1.58
				c-29.64-8.93-57.67-17.38-83.48-17.75c-3.61,6.8-6.97,13.74-10.04,20.69C243.63,208.7,253.26,207.49,263.24,207.49z"/>
			
				<linearGradient id="SVGID_00000098200419357581431490000008078522622964723133_" gradientUnits="userSpaceOnUse" x1="383.7144" y1="-96.8322" x2="855.9594" y2="864.6756">
				<stop  offset="0" style="stop-color:#36A9E1;stop-opacity:0.3"/>
				<stop  offset="1" style="stop-color:#D288B9;stop-opacity:0.3"/>
			</linearGradient>
			<path style="fill:url(#SVGID_00000098200419357581431490000008078522622964723133_);" d="M496.17,658.01l-2.68-0.25
				c-6.64-0.63-13.28-1.46-19.74-2.47l-1.57-0.25l-0.23-1.57c-6.39-44.24-10.83-94.33,17.57-128.81
				c27.57-33.47,75.43-26.32,126.1-18.74c49.93,7.46,101.56,15.18,135.09-17.13c29.33-28.26,19.2-74.2,9.41-118.63
				c-9.98-45.26-20.3-92.05,12.66-118.7c13.12-10.61,30.13-16.66,51.99-18.49l1.67-0.14l0.54,1.58c2.09,6.08,4.03,12.33,5.77,18.59
				l0.67,2.41l-2.49,0.29c-17.78,2.11-31.79,7.44-42.85,16.31c-30.26,24.26-19.78,67.79-8.68,113.88
				c11.15,46.31,22.69,94.19-8.13,124.76c-34.09,33.82-86.49,26.57-137.17,19.57c-49.29-6.82-95.84-13.25-121.12,18.47
				c-23.59,29.6-21.92,70.52-17.17,106.64L496.17,658.01z M475.98,651.28c5,0.76,10.11,1.41,15.23,1.94
				c-4.58-36.35-5.58-77.08,18.42-107.2c26.81-33.64,74.54-27.04,125.07-20.05c49.64,6.86,100.97,13.96,133.55-18.36
				c29.1-28.86,17.85-75.55,6.98-120.7c-10.92-45.36-22.22-92.27,10.17-118.24c11.18-8.96,25.12-14.5,42.55-16.9
				c-1.38-4.83-2.88-9.64-4.47-14.36c-20.18,1.92-35.89,7.62-47.98,17.4c-30.89,24.97-21.31,68.43-11.17,114.43
				c10.05,45.58,20.44,92.71-10.62,122.65c-35.06,33.78-87.75,25.9-138.71,18.29c-49.44-7.39-96.13-14.37-122.15,17.22
				C465.88,560.12,469.84,608.34,475.98,651.28z"/>
			
				<linearGradient id="SVGID_00000134240480183187584840000002539809666208109226_" gradientUnits="userSpaceOnUse" x1="389.8088" y1="-99.8255" x2="862.0538" y2="861.6823">
				<stop  offset="0" style="stop-color:#36A9E1;stop-opacity:0.3"/>
				<stop  offset="1" style="stop-color:#D288B9;stop-opacity:0.3"/>
			</linearGradient>
			<path style="fill:url(#SVGID_00000134240480183187584840000002539809666208109226_);" d="M515.66,659.09l-2.44-0.08
				c-6.58-0.22-13.22-0.64-19.73-1.25l-1.71-0.16l-0.22-1.7c-4.86-37.02-6.52-79.02,18.07-109.88
				c26.81-33.64,74.54-27.04,125.07-20.05c49.64,6.86,100.97,13.96,133.55-18.36c29.1-28.86,17.85-75.55,6.98-120.7
				c-10.92-45.36-22.22-92.27,10.17-118.24c11.71-9.38,26.44-15.02,45.03-17.22l1.83-0.22l0.49,1.78
				c1.72,6.22,3.28,12.59,4.63,18.95l0.46,2.18l-2.2,0.38c-14.17,2.46-25.6,7.27-34.97,14.72c-29.62,23.55-18.25,67.14-6.22,113.28
				c7.65,29.32,15.55,59.64,12.78,85.75l-0.04,0.41l-0.2,0.37c-10.15,19.09-22.27,37.19-36.01,53.81l-0.26,0.32l-0.36,0.2
				c-32.43,17.63-75.49,12.17-117.14,6.89c-49.14-6.23-95.55-12.12-120.09,19.74l-1.7-1.31l1.7,1.31
				c-15.72,20.4-21.35,47.94-17.71,86.67L515.66,659.09z M495.59,653.64c5.07,0.45,10.22,0.78,15.34,0.99
				c-3.28-38.6,2.72-66.37,18.81-87.25l0,0c26.04-33.81,73.64-27.77,124.04-21.38c40.81,5.18,83,10.53,114.18-6.21
				c13.36-16.2,25.15-33.82,35.07-52.39c2.56-25.24-5.2-55.01-12.71-83.8c-12.4-47.53-24.1-92.43,7.71-117.73
				c9.45-7.51,20.82-12.49,34.71-15.18c-1.09-4.95-2.3-9.89-3.61-14.75c-16.91,2.25-30.34,7.52-41.02,16.08
				c-30.26,24.26-19.78,67.79-8.68,113.88c11.15,46.31,22.69,94.19-8.13,124.76c-34.09,33.82-86.49,26.57-137.17,19.57
				c-49.29-6.82-95.84-13.25-121.12,18.47C489.77,577.83,491.03,617.94,495.59,653.64z"/>
			
				<linearGradient id="SVGID_00000074420041207596414040000002582155395931889296_" gradientUnits="userSpaceOnUse" x1="331.7086" y1="-71.2895" x2="803.9536" y2="890.2183">
				<stop  offset="0" style="stop-color:#36A9E1;stop-opacity:0.3"/>
				<stop  offset="1" style="stop-color:#D288B9;stop-opacity:0.3"/>
			</linearGradient>
			<path style="fill:url(#SVGID_00000074420041207596414040000002582155395931889296_);" d="M345.78,605.17l-3.35-2.31
				c-8.12-5.59-16.05-11.6-23.56-17.87l-0.8-0.67l0.03-1.04c0.42-15.94-0.35-33.03-1.17-51.12c-2.56-56.43-5.45-120.38,31.83-156.98
				c32.84-32.24,81.6-21.32,133.22-9.76c51.9,11.62,105.56,23.64,145.97-8.36c31.01-24.56,28.45-63.84,25.75-105.43
				c-2.85-43.85-5.8-89.2,30.79-120.61c14.75-12.66,34.01-20.72,58.89-24.63l1.05-0.17l0.77,0.73c5.82,5.56,11.58,11.5,17.12,17.66
				l2.78,3.09l-4.13,0.48c-26.26,3.05-46.23,10.68-61.07,23.31c-34.43,29.3-30.48,73.8-26.66,116.84
				c3.68,41.49,7.49,84.4-25.03,110.88c-41,33.38-95.41,21.75-148.02,10.51c-50.31-10.75-97.82-20.9-128.26,9.84
				c-35.18,35.54-31.57,95.28-28.08,153.06c1.03,17.07,2.01,33.19,1.96,48.47L345.78,605.17z M322.42,582.35
				c6.12,5.07,12.52,9.97,19.07,14.61c-0.12-13.92-1-28.61-1.94-44.07c-3.38-55.99-7.22-119.44,29.31-156.35l1.53,1.51l-1.53-1.51
				c32.09-32.41,80.72-22.02,132.21-11.02c51.62,11.03,105.01,22.44,144.41-9.64c30.75-25.03,27.21-64.93,23.47-107.16
				c-3.92-44.12-7.96-89.75,28.15-120.49c14.71-12.52,34.12-20.32,59.24-23.78c-4.36-4.73-8.83-9.3-13.35-13.64
				c-23.55,3.84-41.78,11.53-55.7,23.48c-34.96,30.02-32.09,74.27-29.3,117.07c2.78,42.75,5.4,83.12-27.37,109.08
				c-42.01,33.28-96.7,21.03-149.58,9.19c-50.45-11.3-98.1-21.97-129.27,8.63c-35.91,35.25-33.18,95.48-30.54,153.72
				C322.03,549.75,322.79,566.56,322.42,582.35z"/>
			
				<linearGradient id="SVGID_00000053536977601698483750000009168541198856156321_" gradientUnits="userSpaceOnUse" x1="293.141" y1="-52.347" x2="765.386" y2="909.1608">
				<stop  offset="0" style="stop-color:#36A9E1;stop-opacity:0.3"/>
				<stop  offset="1" style="stop-color:#D288B9;stop-opacity:0.3"/>
			</linearGradient>
			<path style="fill:url(#SVGID_00000053536977601698483750000009168541198856156321_);" d="M230.6,468.34l-3.99-9.91
				c-10.17-25.24-17.07-51.7-20.51-78.66l-0.03-0.22l0.02-0.22c2.8-37.21,10.11-83.44,42.12-110.89
				c36.55-31.34,85.96-17.84,138.27-3.55c53.22,14.54,108.26,29.58,153.78-1.89c32.45-22.44,34.74-58.95,37.16-97.61
				c2.64-42.13,5.36-85.69,44.01-120.39c2.91-2.61,6.03-5.12,9.28-7.47l0.92-0.66l1.07,0.38c8.3,2.99,16.59,6.38,24.63,10.07
				l3.94,1.8l-3.82,2.04c-7.57,4.05-14.48,8.84-20.55,14.24c-36.91,32.84-38.45,75.87-39.94,117.49
				c-1.44,40.29-2.8,78.35-36.67,102.41c-46.13,32.77-101.88,18.07-155.8,3.85c-51.03-13.45-99.23-26.16-133.33,3.85
				c-38.78,34.14-39.55,96.18-40.3,156.19L230.6,468.34z M210.39,379.45c2.93,22.82,8.37,45.28,16.21,66.92
				c0.72-57.41,2.15-121.74,41.72-156.58l1.42,1.61l-1.42-1.61c35.81-31.52,85.09-18.53,137.26-4.77
				c52.96,13.96,107.73,28.4,152.22-3.2c32.14-22.83,33.46-59.86,34.86-99.06c1.52-42.52,3.1-86.49,41.38-120.55
				c5.3-4.72,11.21-8.98,17.62-12.72c-6.36-2.81-12.85-5.43-19.35-7.8c-2.8,2.06-5.49,4.25-8.01,6.51
				c-37.34,33.52-40.01,76.19-42.59,117.46c-2.49,39.73-4.83,77.25-39,100.88c-47.16,32.61-103.18,17.31-157.36,2.5
				c-51.18-13.98-99.52-27.19-134.34,2.67C220.25,298.08,213.13,343.1,210.39,379.45z"/>
			
				<linearGradient id="SVGID_00000123413397194640555810000015920769180670672540_" gradientUnits="userSpaceOnUse" x1="306.8054" y1="-59.0583" x2="779.0504" y2="902.4495">
				<stop  offset="0" style="stop-color:#36A9E1;stop-opacity:0.3"/>
				<stop  offset="1" style="stop-color:#D288B9;stop-opacity:0.3"/>
			</linearGradient>
			<path style="fill:url(#SVGID_00000123413397194640555810000015920769180670672540_);" d="M209.66,275.05l2.46-10.39
				c4.07-17.2,9.6-34.13,16.43-50.33l0.36-0.85l0.86-0.33c34.48-13.06,75.3-1.14,118.51,11.48c53.74,15.69,109.3,31.92,156.9,0.74
				c33.15-21.72,37.35-57.27,41.81-94.92c4.23-35.74,8.6-72.7,35.67-105.62l0.81-0.99l1.25,0.24c7.94,1.52,15.91,3.37,23.68,5.49
				l3.68,1l-2.76,2.63c-35.51,33.81-39.23,75.15-42.84,115.13c-3.53,39.18-6.87,76.2-41.36,99.41
				c-48.21,32.44-104.48,16.53-158.91,1.15c-51.33-14.51-99.81-28.22-135.36,1.49c-5.48,4.58-10.5,9.97-14.9,16.02L209.66,275.05z
				 M283.64,228.42c25.91,0,54.36,8.05,83.74,16.35c53.48,15.12,108.78,30.76,155.34-0.58c32.79-22.07,36.04-58.09,39.48-96.23
				c3.42-37.89,7.28-80.71,41.44-115.19c-6.09-1.58-12.28-2.99-18.47-4.2c-25.55,31.7-29.8,67.64-33.91,102.4
				c-4.58,38.67-8.9,75.19-43.72,98.01c-49.25,32.27-105.79,15.76-160.46-0.21c-42.14-12.3-81.96-23.94-114.92-11.91
				c-5.32,12.73-9.84,25.92-13.46,39.34c2.95-3.29,6.09-6.33,9.4-9.09l1.38,1.65l-1.38-1.65
				C244.51,233.39,263.29,228.42,283.64,228.42z"/>
			
				<linearGradient id="SVGID_00000147907258193087767670000001104593070549409946_" gradientUnits="userSpaceOnUse" x1="300.3264" y1="-55.8762" x2="772.5714" y2="905.6317">
				<stop  offset="0" style="stop-color:#36A9E1;stop-opacity:0.3"/>
				<stop  offset="1" style="stop-color:#D288B9;stop-opacity:0.3"/>
			</linearGradient>
			<path style="fill:url(#SVGID_00000147907258193087767670000001104593070549409946_);" d="M253.04,510.14l-3.81-6.33
				c-8.7-14.45-16.31-29.71-22.62-45.37l-0.16-0.4l0.12-8.87c0.72-58.11,1.54-123.96,41.76-159.36
				c35.81-31.52,85.09-18.53,137.26-4.77c52.96,13.96,107.73,28.4,152.22-3.2c32.14-22.83,33.46-59.86,34.86-99.06
				c1.52-42.52,3.1-86.49,41.38-120.55c6.32-5.62,13.51-10.61,21.38-14.82l0.94-0.5l0.97,0.44c8.2,3.76,16.35,7.93,24.23,12.39
				l3.91,2.22l-4.18,1.65c-12.41,4.9-22.81,11.13-31.79,19.05c-36.46,32.15-36.87,75.52-37.28,117.47
				c-0.39,40.88-0.77,79.48-34.34,103.99c-45.09,32.91-100.58,18.82-154.25,5.2c-50.89-12.92-98.95-25.12-132.31,5.03l-1.44-1.59
				l1.44,1.59c-38.07,34.41-37.97,96.01-37.88,155.59c0.02,11.42,0.03,22.22-0.22,32.83L253.04,510.14z M230.76,457.22
				c5.24,12.96,11.38,25.64,18.3,37.79c0.11-8.12,0.09-16.43,0.08-25.09c-0.09-57.7-0.19-123.09,39.29-158.78
				c35.07-31.7,84.22-19.22,136.25-6.01c52.7,13.38,107.2,27.22,150.66-4.5c31.83-23.24,32.2-60.8,32.58-100.56
				c0.41-42.89,0.84-87.24,38.74-120.65c8.34-7.35,17.84-13.31,28.92-18.11c-6.25-3.42-12.64-6.65-19.06-9.62
				c-7.2,3.94-13.79,8.56-19.61,13.74c-36.91,32.84-38.45,75.87-39.94,117.49c-1.44,40.29-2.8,78.35-36.67,102.41
				c-46.13,32.77-101.88,18.07-155.8,3.85c-51.03-13.45-99.23-26.16-133.33,3.85c-38.78,34.14-39.55,96.18-40.3,156.19
				L230.76,457.22z"/>
			
				<linearGradient id="SVGID_00000171704916592058931760000012450968991913529743_" gradientUnits="userSpaceOnUse" x1="289.8264" y1="-50.719" x2="762.0714" y2="910.7888">
				<stop  offset="0" style="stop-color:#36A9E1;stop-opacity:0.3"/>
				<stop  offset="1" style="stop-color:#D288B9;stop-opacity:0.3"/>
			</linearGradient>
			<path style="fill:url(#SVGID_00000171704916592058931760000012450968991913529743_);" d="M208.78,400.8l-2.69-21.03
				c-1.73-13.52-2.6-27.31-2.6-41.01c0-24.99,2.9-49.92,8.63-74.11l0.1-0.42l0.25-0.35c4.61-6.33,9.87-11.98,15.62-16.79
				c37.29-31.16,86.83-17.16,139.28-2.33c53.48,15.12,108.78,30.76,155.34-0.58c32.79-22.07,36.04-58.09,39.48-96.23
				c3.51-38.87,7.48-82.93,44.15-117.85l0.88-0.84l1.17,0.32c8.23,2.24,16.41,4.82,24.29,7.67l3.83,1.38l-3.3,2.38
				c-3.13,2.26-6.13,4.67-8.93,7.18c-37.34,33.52-40.01,76.19-42.59,117.46c-2.49,39.73-4.83,77.25-39,100.88
				c-47.16,32.61-103.18,17.31-157.36,2.5c-51.18-13.98-99.52-27.19-134.34,2.67c-30.81,26.42-37.9,71.57-40.64,107.96L208.78,400.8
				z M216.21,266.07c-5.58,23.73-8.41,48.18-8.41,72.7c0,6.14,0.18,12.3,0.53,18.45c4.25-32.07,13.99-66.56,39.88-88.76l1.4,1.63
				l-1.4-1.63c36.55-31.34,85.96-17.84,138.27-3.55c53.22,14.54,108.26,29.58,153.78-1.89c32.45-22.44,34.74-58.95,37.16-97.61
				c2.64-42.13,5.36-85.69,44.01-120.39c1.93-1.73,3.95-3.41,6.04-5.04c-6.22-2.15-12.6-4.13-19.02-5.91
				c-34.69,33.65-38.39,74.64-41.97,114.29c-3.53,39.18-6.87,76.2-41.36,99.41c-48.21,32.44-104.48,16.53-158.91,1.15
				c-51.33-14.51-99.81-28.22-135.36,1.49C225.48,254.89,220.55,260.16,216.21,266.07z"/>
			
				<linearGradient id="SVGID_00000078741233603014485420000006520889925479435154_" gradientUnits="userSpaceOnUse" x1="323.3535" y1="-67.1859" x2="795.5985" y2="894.3218">
				<stop  offset="0" style="stop-color:#36A9E1;stop-opacity:0.3"/>
				<stop  offset="1" style="stop-color:#D288B9;stop-opacity:0.3"/>
			</linearGradient>
			<path style="fill:url(#SVGID_00000078741233603014485420000006520889925479435154_);" d="M322.28,587.83l-3.41-2.84
				c-8.12-6.77-16.02-14.05-23.48-21.65l-0.65-0.66l0.04-0.93c0.6-15.71,0.08-32.53-0.46-50.32c-1.73-56.86-3.69-121.3,34.33-157.59
				c33.58-32.06,82.47-20.61,134.23-8.5c52.17,12.21,106.11,24.84,147.53-7.08c31.27-24.1,29.7-62.79,28.03-103.75
				c-1.77-43.55-3.61-88.59,33.44-120.68c13.51-11.71,30.6-19.64,52.23-24.26l1.01-0.21l0.8,0.65c6.73,5.47,13.22,11.18,19.28,16.97
				l3.14,3l-4.29,0.67c-24.06,3.78-42.63,11.52-56.75,23.65c-34.96,30.02-32.09,74.27-29.3,117.07
				c2.78,42.75,5.4,83.12-27.37,109.08c-42.01,33.28-96.7,21.03-149.58,9.19c-50.45-11.3-98.1-21.96-129.27,8.63l0,0
				c-35.91,35.25-33.18,95.48-30.54,153.72c0.82,18.17,1.6,35.33,1.17,51.42L322.28,587.83z M299.1,560.99
				c6.11,6.18,12.52,12.16,19.09,17.8c0.19-14.64-0.51-30.22-1.26-46.62c-2.56-56.43-5.45-120.38,31.83-156.98
				c32.84-32.24,81.6-21.32,133.22-9.76c51.9,11.62,105.56,23.64,145.97-8.36c31.01-24.56,28.45-63.84,25.75-105.43
				c-2.85-43.85-5.8-89.2,30.79-120.61c13.89-11.93,31.78-19.77,54.6-23.9c-4.82-4.47-9.88-8.88-15.09-13.14
				c-20.43,4.49-36.57,12.05-49.31,23.09c-35.48,30.73-33.69,74.72-31.96,117.26c1.71,42.1,3.33,81.87-29.7,107.33
				c-43.04,33.17-97.99,20.3-151.14,7.86c-50.6-11.84-98.39-23.03-130.28,7.42c-36.63,34.97-34.79,95.66-33,154.35
				C299.14,528.83,299.65,545.4,299.1,560.99z"/>
			
				<linearGradient id="SVGID_00000179604334895322912510000003217463316102673068_" gradientUnits="userSpaceOnUse" x1="315.0265" y1="-63.0961" x2="787.2715" y2="898.4117">
				<stop  offset="0" style="stop-color:#36A9E1;stop-opacity:0.3"/>
				<stop  offset="1" style="stop-color:#D288B9;stop-opacity:0.3"/>
			</linearGradient>
			<path style="fill:url(#SVGID_00000179604334895322912510000003217463316102673068_);" d="M298.88,566.89l-3.49-3.55
				c-8.25-8.4-16.07-17.26-23.23-26.35l-0.49-0.62l0.03-0.79c0.51-14.18,0.28-29.1,0.02-44.9c-0.91-57.28-1.94-122.2,36.82-158.19
				c34.32-31.88,83.34-19.92,135.24-7.25c52.44,12.8,106.66,26.03,149.09-5.8c31.55-23.66,30.94-61.77,30.31-102.13
				c-0.68-43.23-1.39-87.94,36.09-120.69C671,86.36,685.24,78.9,702.8,73.8l0.97-0.28l0.84,0.57c7.26,4.96,14.43,10.31,21.3,15.91
				l3.48,2.83l-4.39,0.94c-20.9,4.46-37.36,12.09-50.32,23.31c-35.48,30.73-33.69,74.72-31.96,117.26
				c1.71,42.1,3.33,81.87-29.7,107.33c-43.03,33.16-97.99,20.3-151.13,7.86c-50.6-11.84-98.39-23.03-130.28,7.42l-1.48-1.55
				l1.48,1.55c-36.63,34.97-34.79,95.66-33,154.35c0.54,17.87,1.06,34.76,0.45,50.62L298.88,566.89z M276.02,534.95
				c5.9,7.45,12.25,14.74,18.91,21.74c0.33-14.24-0.13-29.36-0.61-45.25c-1.73-56.86-3.69-121.3,34.33-157.59
				c33.58-32.06,82.47-20.61,134.23-8.5c52.17,12.21,106.11,24.84,147.53-7.08c31.27-24.1,29.7-62.79,28.03-103.75
				c-1.77-43.55-3.61-88.59,33.44-120.68c12.59-10.91,28.28-18.54,47.86-23.27c-5.45-4.3-11.05-8.44-16.72-12.34
				c-16.49,4.91-29.89,11.99-40.93,21.64c-35.98,31.44-35.29,75.14-34.62,117.39c0.66,41.48,1.28,80.66-32.02,105.63
				c-44.06,33.04-99.29,19.57-152.69,6.53c-50.74-12.38-98.67-24.08-131.3,6.23c-37.35,34.69-36.39,95.84-35.45,154.98
				C276.26,506.18,276.49,520.89,276.02,534.95z"/>
			
				<linearGradient id="SVGID_00000154420046543997475940000016533217871937616272_" gradientUnits="userSpaceOnUse" x1="307.1324" y1="-59.2189" x2="779.3773" y2="902.2889">
				<stop  offset="0" style="stop-color:#36A9E1;stop-opacity:0.3"/>
				<stop  offset="1" style="stop-color:#D288B9;stop-opacity:0.3"/>
			</linearGradient>
			<path style="fill:url(#SVGID_00000154420046543997475940000016533217871937616272_);" d="M275.78,541.59l-3.62-4.6
				c-8.29-10.51-16-21.67-22.93-33.18l-0.32-0.54l0.01-0.62c0.25-10.56,0.24-21.33,0.22-32.72c-0.09-57.7-0.19-123.09,39.29-158.78
				c35.07-31.7,84.22-19.22,136.25-6.01c52.7,13.38,107.2,27.22,150.66-4.5c31.83-23.24,32.2-60.8,32.58-100.56
				c0.41-42.89,0.84-87.24,38.74-120.65c9.36-8.25,20.17-14.74,33.06-19.83l0.95-0.38l0.89,0.51c7.86,4.45,15.62,9.28,23.06,14.37
				l3.75,2.57L704,77.93c-16.94,4.92-30.65,12.09-41.9,21.93c-35.98,31.44-35.29,75.14-34.62,117.39
				c0.66,41.48,1.28,80.66-32.02,105.63c-44.06,33.04-99.29,19.57-152.69,6.53c-50.74-12.38-98.67-24.08-131.3,6.22
				c-37.35,34.69-36.39,95.84-35.45,154.98c0.25,15.85,0.49,30.83-0.03,45.12L275.78,541.59z M253.23,502.12
				c5.72,9.45,11.97,18.67,18.64,27.47c0.27-12.38,0.07-25.32-0.15-38.91c-0.91-57.28-1.94-122.2,36.82-158.19l1.46,1.57l-1.46-1.57
				c34.32-31.88,83.34-19.92,135.24-7.25c52.44,12.8,106.66,26.03,149.09-5.8c31.55-23.66,30.94-61.77,30.31-102.13
				c-0.68-43.23-1.39-87.94,36.09-120.69c10.75-9.4,23.61-16.45,39.2-21.49c-5.9-3.91-11.98-7.66-18.13-11.16
				c-11.99,4.84-22.09,10.96-30.84,18.67c-36.46,32.15-36.87,75.52-37.28,117.47c-0.39,40.88-0.77,79.48-34.34,103.99
				c-45.09,32.91-100.58,18.82-154.25,5.2c-50.89-12.92-98.95-25.12-132.31,5.03c-38.07,34.41-37.97,96.01-37.88,155.59
				C253.45,481.12,253.47,491.71,253.23,502.12z"/>
		</g>
		<circle class="st35" cx="523.94" cy="338.77" r="326.63"/>
	</g>
	<g>
		<g>
			<path class="st36" d="M195.2,426.66V245.1h18.11l57.38,113.98l56.61-113.98h18.36v181.56h-19.63V285.39l-48.45,100.47h-13.77
				l-48.96-100.47v141.27H195.2z"/>
			<path class="st36" d="M378.28,364.19c0-22.44,4.93-39.31,14.79-50.62c9.86-11.3,23.63-16.96,41.31-16.96
				c17.68,0,31.49,5.65,41.44,16.96c9.94,11.31,14.92,28.18,14.92,50.62c0,21.08-4.97,37.19-14.92,48.32
				c-9.95,11.14-23.76,16.7-41.44,16.7c-17.68,0-31.45-5.57-41.31-16.7C383.21,401.38,378.28,385.27,378.28,364.19z M434.39,412.13
				c12.92,0,22.48-4.33,28.69-13c6.2-8.67,9.31-20.31,9.31-34.93c0-15.98-3.1-28.39-9.31-37.23c-6.21-8.84-15.77-13.26-28.69-13.26
				c-12.75,0-22.23,4.42-28.43,13.26c-6.21,8.84-9.31,21.25-9.31,37.23c0,14.62,3.1,26.26,9.31,34.93
				C412.16,407.79,421.64,412.13,434.39,412.13z"/>
			<path class="st36" d="M543.27,426.66l-44.12-127.5h19.38l38,112.46l38.25-112.46h19.38l-44.12,127.5H543.27z"/>
			<path class="st36" d="M717.43,390.2l16.83,2.55c-3.23,10.88-8.97,19.72-17.21,26.52c-8.25,6.8-19.42,10.11-33.53,9.94
				c-9.86,0-18.74-2.47-26.65-7.39c-7.91-4.93-14.11-12.32-18.62-22.19c-4.51-9.86-6.76-22.01-6.76-36.46
				c0-14.79,2.25-27.11,6.76-36.97c4.5-9.86,10.71-17.25,18.62-22.19c7.9-4.93,16.79-7.39,26.65-7.39c6.63,0,13.09,1.15,19.38,3.44
				c6.29,2.29,11.94,6.04,16.96,11.22c5.01,5.19,8.96,12.2,11.86,21.04c2.89,8.84,4.25,19.81,4.08,32.89h-87.72
				c0.17,7.82,1.44,15.43,3.83,22.82c2.38,7.4,6.12,13.48,11.22,18.23c5.1,4.76,11.9,7.14,20.4,7.14c7.14,0,12.92-1.1,17.34-3.32
				c4.42-2.21,7.91-5.1,10.46-8.67S715.9,394.11,717.43,390.2z M683.52,312.17c-7.14,0-13.09,1.75-17.85,5.23
				c-4.76,3.49-8.46,8.08-11.09,13.77c-2.64,5.7-4.46,11.86-5.48,18.49h68.85c-1.7-13.94-5.7-23.67-11.99-29.2
				C699.66,314.93,692.19,312.17,683.52,312.17z"/>
			<path class="st36" d="M814.33,429.47c-15.98,0-28.81-3.95-38.5-11.86c-9.69-7.9-14.71-18.32-15.04-31.24h18.36
				c0.17,5.95,1.91,10.84,5.23,14.66c3.31,3.83,7.56,6.67,12.75,8.54c5.18,1.87,10.75,2.8,16.7,2.8c5.27,0,10.41-0.72,15.43-2.17
				c5.01-1.44,9.22-3.74,12.62-6.88c3.4-3.14,5.1-7.27,5.1-12.37c0-5.1-2.04-9.35-6.12-12.75c-4.08-3.4-9.35-5.52-15.81-6.38
				c-4.76-0.68-9.52-1.31-14.28-1.91c-4.76-0.59-9.61-1.23-14.54-1.91c-9.35-1.36-16.79-5.1-22.31-11.22
				c-5.53-6.12-8.29-13.43-8.29-21.93c0-7.65,2.17-14.36,6.5-20.15c4.33-5.78,10.11-10.28,17.34-13.51
				c7.22-3.23,15.17-4.84,23.84-4.84s16.49,1.57,23.46,4.72c6.97,3.15,12.58,7.69,16.83,13.64c4.25,5.95,6.46,13.18,6.63,21.68
				h-18.36c-0.68-6.63-3.49-12.11-8.42-16.45c-4.93-4.33-11.65-6.5-20.14-6.5c-4.42,0-8.88,0.68-13.39,2.04
				c-4.51,1.36-8.29,3.57-11.35,6.63c-3.06,3.06-4.59,7.06-4.59,11.98c0,9.69,6.2,15.3,18.62,16.83c0.68,0.17,2.89,0.51,6.63,1.02
				c3.74,0.51,7.91,1.11,12.5,1.79c4.59,0.68,8.42,1.27,11.47,1.79c9.69,1.53,17.47,5.31,23.33,11.35c5.87,6.04,8.8,13.56,8.8,22.57
				c0,9.01-2.34,16.49-7.01,22.44c-4.68,5.95-10.88,10.37-18.62,13.26C831.97,428.02,823.51,429.47,814.33,429.47z"/>
		</g>
		<g>
			<path class="st37" d="M26.42,323v-32.56L2,246h9.35l19.36,35.2L49.85,246h9.35l-24.31,44.44V323H26.42z"/>
			<path class="st37" d="M98.14,307.27l7.26,1.1c-1.39,4.69-3.87,8.51-7.42,11.44c-3.56,2.93-8.38,4.36-14.46,4.29
				c-4.25,0-8.08-1.06-11.5-3.19s-6.09-5.32-8.03-9.57c-1.94-4.25-2.92-9.5-2.92-15.73c0-6.38,0.97-11.7,2.92-15.95
				c1.94-4.25,4.62-7.44,8.03-9.57c3.41-2.13,7.24-3.19,11.5-3.19c2.86,0,5.65,0.49,8.36,1.48c2.71,0.99,5.15,2.6,7.32,4.84
				c2.16,2.24,3.87,5.26,5.12,9.08c1.25,3.81,1.83,8.54,1.76,14.19H68.22c0.07,3.37,0.62,6.65,1.65,9.84
				c1.03,3.19,2.64,5.81,4.84,7.87c2.2,2.05,5.13,3.08,8.8,3.08c3.08,0,5.57-0.48,7.48-1.43c1.91-0.95,3.41-2.2,4.51-3.74
				C96.6,310.57,97.48,308.96,98.14,307.27z M83.51,273.61c-3.08,0-5.65,0.75-7.7,2.25c-2.05,1.5-3.65,3.48-4.79,5.94
				c-1.14,2.46-1.92,5.12-2.37,7.98h29.7c-0.73-6.01-2.46-10.21-5.17-12.6C90.48,274.81,87.25,273.61,83.51,273.61z"/>
			<path class="st37" d="M113.1,268h10.12v-14.96h7.92V268h15.4v7.37h-15.4v30.36c0,1.76,0.09,3.39,0.28,4.89
				c0.18,1.5,0.79,2.71,1.81,3.63c1.03,0.92,2.75,1.38,5.17,1.38h8.14V323h-11.22c-3.3,0-5.81-0.75-7.54-2.25
				c-1.72-1.5-2.92-3.58-3.58-6.21c-0.66-2.64-0.99-5.72-0.99-9.24v-29.92H113.1V268z"/>
		</g>
		<g>
			<path class="st37" d="M92.29,358.38c0-3.81,1.94-5.72,5.83-5.72c3.74,0,5.61,1.91,5.61,5.72c0,1.69-0.48,3.03-1.43,4.02
				c-0.95,0.99-2.35,1.48-4.18,1.48c-1.98,0-3.45-0.5-4.4-1.48C92.77,361.4,92.29,360.07,92.29,358.38z M94.16,374.33h7.81v55h-7.81
				V374.33z"/>
			<path class="st37" d="M113.74,374.33h10.12v-14.96h7.92v14.96h15.4v7.37h-15.4v30.36c0,1.76,0.09,3.39,0.27,4.89
				c0.18,1.5,0.79,2.71,1.81,3.63c1.03,0.92,2.75,1.38,5.17,1.38h8.14v7.37h-11.22c-3.3,0-5.81-0.75-7.53-2.25
				c-1.72-1.5-2.92-3.58-3.58-6.21c-0.66-2.64-0.99-5.72-0.99-9.24V381.7h-10.12V374.33z"/>
		</g>
	</g>
</g>
<g>
</g>
<g>
</g>
<g>
</g>
<g>
</g>
<g>
</g>
<g>
</g>
</svg>
